<svg version="1.1" id="Слой_1" xmlns="http://www.w3.org/2000/svg" x="0" y="0" viewBox="0 0 179.3 205.9" style="enable-background:new 0 0 179.3 205.9" xml:space="preserve"><path d="M160.7 135.9H18.5c-7.5 0-13.6 6.1-13.6 13.6v38.3c0 7.5 6.1 13.6 13.6 13.6h142.2c7.5 0 13.6-6.1 13.6-13.6v-38.3c0-7.5-6.1-13.6-13.6-13.6zM9.2 149.6c0-5.2 4.2-9.4 9.4-9.4h142.2c5.2 0 9.4 4.2 9.4 9.4v31c0 5.2-4.2 9.4-9.4 9.4H18.5c-5.2 0-9.4-4.2-9.4-9.4v-31zM84.7 48H95V28.1h7L89.9 16 77.8 28.1h6.9zM30.2 79.6 18.1 91.8l12.1 12.1v-7H50V86.6H30.2zM95 76.8H84.7v19.8h-6.9l12.1 12.1L102 96.6h-7z"/><path d="M160.7 62.1h-31c-5.3 0-9.9 3.1-12.2 7.6-.7-1.4-1.6-2.6-2.7-3.7 2.5-2.5 4.1-5.9 4.1-9.7V18c0-7.5-6.1-13.6-13.6-13.6h-31c-7.5 0-13.6 6.1-13.6 13.6v38.3c0 3.8 1.6 7.2 4.1 9.7-1.2 1.2-2.2 2.6-2.9 4.1-2.1-4.7-6.9-8-12.4-8h-31c-7.5 0-13.6 6.1-13.6 13.6V114c0 7.5 6.1 13.6 13.6 13.6h31c5.5 0 10.3-3.3 12.4-8 2.1 4.7 6.9 8 12.4 8h31c5.3 0 9.9-3.1 12.2-7.6 2.2 4.5 6.9 7.6 12.2 7.6h31c7.5 0 13.6-6.1 13.6-13.6V75.8c.1-7.6-6-13.7-13.6-13.7zM58.9 106.7c0 5.2-4.2 9.4-9.4 9.4h-31c-5.2 0-9.4-4.2-9.4-9.4v-31c0-5.2 4.2-9.4 9.4-9.4h31c5.2 0 9.4 4.2 9.4 9.4v31zM65 18c0-5.2 4.2-9.4 9.4-9.4h31c5.2 0 9.4 4.2 9.4 9.4v31c0 5.2-4.2 9.4-9.4 9.4h-31c-5.2 0-9.4-4.2-9.4-9.4V18zm49.7 88.7c0 5.2-4.2 9.4-9.4 9.4h-31c-5.2 0-9.4-4.2-9.4-9.4v-31c0-5.2 4.2-9.4 9.4-9.4h31c5.2 0 9.4 4.2 9.4 9.4v31zm55.4 0c0 5.2-4.2 9.4-9.4 9.4h-31c-5.2 0-9.4-4.2-9.4-9.4v-31c0-5.2 4.2-9.4 9.4-9.4h31c5.2 0 9.4 4.2 9.4 9.4v31z"/><path d="M149.1 86.6h-19.8v10.3h19.8v7l12.1-12.1-12.1-12.2zM26 174.5v-3.4h-3.4v-3.4h6.8v3.4h10.1v-6.8H26V161h-3.4v-6.8H26v-3.4h16.9v3.4h3.4v3.4h-6.8v-3.4H29.4v6.8h13.5v3.4h3.4v6.8h-3.4v3.4H26zM49.6 177.9v-20.3h20.3v3.4h3.4v6.8h-3.4v3.4H56.4v6.8h-6.8zm6.8-10.1h10.1V161H56.4v6.8zM80 174.5v-3.4h-3.4v-3.4H80v-3.4h13.5V161H80v-3.4h16.9v3.4h3.4v13.5H80zm3.4-3.4h10.1v-3.4H83.4v3.4zM107 174.5v-3.4h-3.4V161h3.4v-3.4h20.3v3.4h-16.9v10.1h16.9v3.4H107zM134 174.5v-3.4h-3.4V161h3.4v-3.4h16.9v3.4h3.4v6.8h-16.9v3.4h13.5v3.4H134zm3.4-10.1h10.1V161h-10.1v3.4z"/></svg>