<?xml version="1.0" encoding="utf-8"?>
<!-- Generator: Adobe Illustrator 24.0.1, SVG Export Plug-In . SVG Version: 6.00 Build 0)  -->
<svg version="1.1" id="Слой_1" xmlns="http://www.w3.org/2000/svg" xmlns:xlink="http://www.w3.org/1999/xlink" x="0px" y="0px"
	 viewBox="0 0 179.3 205.9" style="enable-background:new 0 0 179.3 205.9;" xml:space="preserve">
<g>
	<path d="M160.7,135.9H18.5c-7.5,0-13.6,6.1-13.6,13.6v7.3v23.7v7.3c0,7.5,6.1,13.6,13.6,13.6h142.2c7.5,0,13.6-6.1,13.6-13.6v-7.3
		v-23.7v-7.3C174.3,142,168.2,135.9,160.7,135.9z M9.2,149.6c0-5.2,4.2-9.4,9.4-9.4h142.2c5.2,0,9.4,4.2,9.4,9.4v31
		c0,5.2-4.2,9.4-9.4,9.4H18.5c-5.2,0-9.4-4.2-9.4-9.4V149.6z"/>
	<g>
		<polygon points="84.7,48 95,48 95,28.1 102,28.1 89.9,16 77.8,28.1 84.7,28.1 		"/>
		<polygon points="30.2,79.6 18.1,91.8 30.2,103.9 30.2,96.9 50,96.9 50,86.6 30.2,86.6 		"/>
		<polygon points="95,76.8 84.7,76.8 84.7,96.6 77.8,96.6 89.9,108.7 102,96.6 95,96.6 		"/>
		<path d="M160.7,62.1h-31c-5.3,0-9.9,3.1-12.2,7.6c-0.7-1.4-1.6-2.6-2.7-3.7c2.5-2.5,4.1-5.9,4.1-9.7V49V25.3V18
			c0-7.5-6.1-13.6-13.6-13.6h-31c-7.5,0-13.6,6.1-13.6,13.6v7.3V49v7.3c0,3.8,1.6,7.2,4.1,9.7c-1.2,1.2-2.2,2.6-2.9,4.1
			c-2.1-4.7-6.9-8-12.4-8h-31c-7.5,0-13.6,6.1-13.6,13.6v7.3v23.7v7.3c0,7.5,6.1,13.6,13.6,13.6h31c5.5,0,10.3-3.3,12.4-8
			c2.1,4.7,6.9,8,12.4,8h31c5.3,0,9.9-3.1,12.2-7.6c2.2,4.5,6.9,7.6,12.2,7.6h31c7.5,0,13.6-6.1,13.6-13.6v-7.3V83.1v-7.3
			C174.4,68.2,168.3,62.1,160.7,62.1z M58.9,106.7c0,5.2-4.2,9.4-9.4,9.4h-31c-5.2,0-9.4-4.2-9.4-9.4v-31c0-5.2,4.2-9.4,9.4-9.4h31
			c5.2,0,9.4,4.2,9.4,9.4V106.7z M65,18c0-5.2,4.2-9.4,9.4-9.4h31c5.2,0,9.4,4.2,9.4,9.4v31c0,5.2-4.2,9.4-9.4,9.4h-31
			c-5.2,0-9.4-4.2-9.4-9.4V18z M114.7,106.7c0,5.2-4.2,9.4-9.4,9.4h-31c-5.2,0-9.4-4.2-9.4-9.4v-31c0-5.2,4.2-9.4,9.4-9.4h31
			c5.2,0,9.4,4.2,9.4,9.4V106.7z M170.1,106.7c0,5.2-4.2,9.4-9.4,9.4h-31c-5.2,0-9.4-4.2-9.4-9.4v-31c0-5.2,4.2-9.4,9.4-9.4h31
			c5.2,0,9.4,4.2,9.4,9.4V106.7z"/>
		<polygon points="149.1,86.6 129.3,86.6 129.3,96.9 149.1,96.9 149.1,103.9 161.2,91.8 149.1,79.6 		"/>
	</g>
	<g>
		<path d="M26,174.5v-3.4h-3.4v-3.4h6.8v3.4h10.1v-6.8H26V161h-3.4v-6.8H26v-3.4h16.9v3.4h3.4v3.4h-6.8v-3.4H29.4v6.8h13.5v3.4h3.4
			v6.8h-3.4v3.4H26z"/>
		<path d="M49.6,177.9v-20.3h20.3v3.4h3.4v6.8h-3.4v3.4H56.4v6.8H49.6z M56.4,167.8h10.1V161H56.4V167.8z"/>
		<path d="M80,174.5v-3.4h-3.4v-3.4H80v-3.4h13.5V161H80v-3.4h16.9v3.4h3.4v13.5H80z M83.4,171.1h10.1v-3.4H83.4V171.1z"/>
		<path d="M107,174.5v-3.4h-3.4V161h3.4v-3.4h20.3v3.4h-16.9v10.1h16.9v3.4H107z"/>
		<path d="M134,174.5v-3.4h-3.4V161h3.4v-3.4h16.9v3.4h3.4v6.8h-16.9v3.4h13.5v3.4H134z M137.4,164.4h10.1V161h-10.1V164.4z"/>
	</g>
</g>
</svg>
